G75*
G70*
%OFA0B0*%
%FSLAX24Y24*%
%IPPOS*%
%LPD*%
%AMOC8*
5,1,8,0,0,1.08239X$1,22.5*
%
%ADD10C,0.0040*%
%ADD11C,0.0060*%
%ADD12C,0.0080*%
%ADD13C,0.0100*%
%ADD14C,0.0050*%
%ADD15R,0.0200X0.0800*%
%ADD16R,0.0750X0.0200*%
%ADD17C,0.0020*%
D10*
X011677Y012423D02*
X011524Y012576D01*
X011600Y012730D02*
X011907Y012730D01*
X011984Y012806D01*
X011984Y012960D01*
X011907Y013036D01*
X011984Y013190D02*
X011831Y013343D01*
X011677Y013343D01*
X011524Y013190D01*
X011600Y013036D02*
X011524Y012960D01*
X011524Y012806D01*
X011600Y012730D01*
X011677Y012423D02*
X011831Y012423D01*
X011984Y012576D01*
X011984Y013497D02*
X011677Y013804D01*
X011600Y013804D01*
X011524Y013727D01*
X011524Y013574D01*
X011600Y013497D01*
X011984Y013497D02*
X011984Y013804D01*
X011907Y013957D02*
X011600Y014264D01*
X011907Y014264D01*
X011984Y014187D01*
X011984Y014034D01*
X011907Y013957D01*
X011600Y013957D01*
X011524Y014034D01*
X011524Y014187D01*
X011600Y014264D01*
X011677Y014418D02*
X011524Y014571D01*
X011984Y014571D01*
X011984Y014418D02*
X011984Y014724D01*
X011907Y014878D02*
X011600Y015185D01*
X011907Y015185D01*
X011984Y015108D01*
X011984Y014955D01*
X011907Y014878D01*
X011600Y014878D01*
X011524Y014955D01*
X011524Y015108D01*
X011600Y015185D01*
X011907Y015799D02*
X011831Y015875D01*
X011831Y016105D01*
X011754Y016105D02*
X011984Y016105D01*
X011984Y015875D01*
X011907Y015799D01*
X011677Y015875D02*
X011677Y016029D01*
X011754Y016105D01*
X011677Y016259D02*
X011677Y016489D01*
X011754Y016566D01*
X011907Y016566D01*
X011984Y016489D01*
X011984Y016259D01*
X011524Y016259D01*
X011677Y016719D02*
X011907Y016719D01*
X011984Y016796D01*
X011984Y017026D01*
X012061Y017026D02*
X012137Y016949D01*
X012137Y016873D01*
X012061Y017026D02*
X011677Y017026D01*
X011677Y017180D02*
X011677Y017333D01*
X011600Y017256D02*
X011907Y017256D01*
X011984Y017333D01*
X011984Y017487D02*
X011524Y017487D01*
X011677Y017563D02*
X011677Y017717D01*
X011754Y017793D01*
X011984Y017793D01*
X011907Y017947D02*
X011984Y018024D01*
X011984Y018177D01*
X011831Y018254D02*
X011831Y017947D01*
X011907Y017947D02*
X011754Y017947D01*
X011677Y018024D01*
X011677Y018177D01*
X011754Y018254D01*
X011831Y018254D01*
X011984Y018407D02*
X011984Y018561D01*
X011984Y018484D02*
X011524Y018484D01*
X011524Y018407D01*
X011524Y018714D02*
X011524Y018791D01*
X011984Y018791D01*
X011984Y018714D02*
X011984Y018868D01*
X011907Y019021D02*
X011984Y019098D01*
X011984Y019251D01*
X011907Y019328D01*
X011831Y019251D02*
X011677Y019251D01*
X011677Y019098D01*
X011831Y019098D01*
X011831Y019251D01*
X011754Y019328D01*
X011600Y019328D01*
X011524Y019251D01*
X011524Y019098D01*
X011600Y019021D01*
X011907Y019021D01*
X011984Y019481D02*
X011984Y019635D01*
X011984Y019558D02*
X011677Y019558D01*
X011677Y019481D01*
X011524Y019558D02*
X011447Y019558D01*
X011677Y019865D02*
X011677Y020018D01*
X011754Y020095D01*
X011831Y020095D01*
X011831Y019788D01*
X011907Y019788D02*
X011754Y019788D01*
X011677Y019865D01*
X011907Y019788D02*
X011984Y019865D01*
X011984Y020018D01*
X011907Y020249D02*
X011754Y020249D01*
X011677Y020325D01*
X011677Y020479D01*
X011754Y020556D01*
X011831Y020556D01*
X011831Y020249D01*
X011907Y020249D02*
X011984Y020325D01*
X011984Y020479D01*
X011907Y020709D02*
X011984Y020786D01*
X011984Y020939D01*
X011831Y021016D02*
X011831Y020709D01*
X011907Y020709D02*
X011754Y020709D01*
X011677Y020786D01*
X011677Y020939D01*
X011754Y021016D01*
X011831Y021016D01*
X011907Y021169D02*
X011907Y021246D01*
X011984Y021246D01*
X011984Y021169D01*
X011907Y021169D01*
X011907Y021399D02*
X011984Y021476D01*
X011984Y021630D01*
X011907Y021706D01*
X011754Y021706D01*
X011677Y021630D01*
X011677Y021476D01*
X011754Y021399D01*
X011907Y021399D01*
X011831Y021860D02*
X011677Y022013D01*
X011677Y022090D01*
X011754Y022243D02*
X011677Y022320D01*
X011677Y022550D01*
X012061Y022550D01*
X012137Y022474D01*
X012137Y022397D01*
X011984Y022320D02*
X011984Y022550D01*
X011984Y022320D02*
X011907Y022243D01*
X011754Y022243D01*
X011677Y021860D02*
X011984Y021860D01*
X011677Y017563D02*
X011754Y017487D01*
D11*
X010504Y018903D02*
X010504Y019903D01*
X010504Y024903D01*
X009504Y024903D01*
X009504Y019903D01*
X009504Y018903D01*
X009754Y019153D01*
X009504Y018903D02*
X010504Y018903D01*
X010254Y019153D01*
X010254Y019653D02*
X010504Y019903D01*
X009504Y019903D01*
X009754Y019653D01*
X008604Y020003D02*
X003454Y020003D01*
X003454Y008553D01*
X008604Y008553D01*
X008604Y020003D01*
X008760Y021417D02*
X008760Y021737D01*
X008654Y021844D01*
X008440Y021844D01*
X008333Y021737D01*
X008333Y021417D01*
X008974Y021417D01*
X008974Y022061D02*
X008974Y022488D01*
X008974Y022275D02*
X008333Y022275D01*
X008547Y022061D01*
X005974Y022061D02*
X005547Y022488D01*
X005440Y022488D01*
X005333Y022382D01*
X005333Y022168D01*
X005440Y022061D01*
X005440Y021844D02*
X005654Y021844D01*
X005760Y021737D01*
X005760Y021417D01*
X005974Y021417D02*
X005333Y021417D01*
X005333Y021737D01*
X005440Y021844D01*
X005974Y022061D02*
X005974Y022488D01*
X006074Y018653D02*
X006724Y018653D01*
X006074Y018653D02*
X006074Y017683D01*
X005704Y017303D02*
X006204Y017053D01*
X005704Y017303D02*
X005254Y017303D01*
X005461Y014573D02*
X005461Y013933D01*
X005141Y013933D01*
X005034Y014039D01*
X005034Y014253D01*
X005141Y014360D01*
X005461Y014360D01*
X005678Y014253D02*
X005785Y014360D01*
X006105Y014360D01*
X005999Y014146D02*
X005785Y014146D01*
X005678Y014253D01*
X005678Y013933D02*
X005999Y013933D01*
X006105Y014039D01*
X005999Y014146D01*
X006323Y014039D02*
X006430Y013933D01*
X006750Y013933D01*
X006968Y014253D02*
X007395Y014253D01*
X007612Y014360D02*
X007826Y014573D01*
X007826Y013933D01*
X008039Y013933D02*
X007612Y013933D01*
X006750Y014360D02*
X006430Y014360D01*
X006323Y014253D01*
X006323Y014039D01*
X005534Y009893D02*
X006524Y008913D01*
X006524Y009403D02*
X006764Y009403D01*
X005534Y009403D02*
X005194Y009403D01*
X003191Y009073D02*
X003134Y009016D01*
X003134Y008733D01*
X003077Y008903D02*
X003191Y008903D01*
X002936Y008903D02*
X002936Y008846D01*
X002709Y008846D01*
X002709Y008789D02*
X002709Y008903D01*
X002766Y008960D01*
X002879Y008960D01*
X002936Y008903D01*
X002879Y008733D02*
X002766Y008733D01*
X002709Y008789D01*
X002572Y008960D02*
X002516Y008960D01*
X002402Y008846D01*
X002402Y008733D02*
X002402Y008960D01*
X002261Y008960D02*
X002261Y008733D01*
X002261Y008903D02*
X002034Y008903D01*
X002034Y008960D02*
X002147Y009073D01*
X002261Y008960D01*
X002034Y008960D02*
X002034Y008733D01*
X002091Y009733D02*
X002204Y009733D01*
X002261Y009789D01*
X002261Y009903D01*
X002147Y009903D01*
X002034Y010016D02*
X002034Y009789D01*
X002091Y009733D01*
X002034Y010016D02*
X002091Y010073D01*
X002204Y010073D01*
X002261Y010016D01*
X002402Y010073D02*
X002402Y009733D01*
X002629Y009733D02*
X002402Y010073D01*
X002629Y010073D02*
X002629Y009733D01*
X002771Y009733D02*
X002941Y009733D01*
X002997Y009789D01*
X002997Y010016D01*
X002941Y010073D01*
X002771Y010073D01*
X002771Y009733D01*
X002572Y010733D02*
X002459Y010733D01*
X002402Y010789D01*
X002261Y010733D02*
X002034Y010733D01*
X002147Y010733D02*
X002147Y011073D01*
X002034Y010960D01*
X002402Y011016D02*
X002459Y011073D01*
X002572Y011073D01*
X002629Y011016D01*
X002629Y010960D01*
X002572Y010903D01*
X002629Y010846D01*
X002629Y010789D01*
X002572Y010733D01*
X002572Y010903D02*
X002516Y010903D01*
X002629Y011733D02*
X002402Y011733D01*
X002629Y011960D01*
X002629Y012016D01*
X002572Y012073D01*
X002459Y012073D01*
X002402Y012016D01*
X002261Y011733D02*
X002034Y011733D01*
X002147Y011733D02*
X002147Y012073D01*
X002034Y011960D01*
X002034Y012733D02*
X002261Y012733D01*
X002147Y012733D02*
X002147Y013073D01*
X002034Y012960D01*
X002402Y012960D02*
X002516Y013073D01*
X002516Y012733D01*
X002629Y012733D02*
X002402Y012733D01*
X002459Y013733D02*
X002402Y013789D01*
X002629Y014016D01*
X002629Y013789D01*
X002572Y013733D01*
X002459Y013733D01*
X002402Y013789D02*
X002402Y014016D01*
X002459Y014073D01*
X002572Y014073D01*
X002629Y014016D01*
X002261Y013733D02*
X002034Y013733D01*
X002147Y013733D02*
X002147Y014073D01*
X002034Y013960D01*
X002091Y014733D02*
X002204Y014733D01*
X002261Y014789D01*
X002261Y015016D01*
X002204Y015073D01*
X002091Y015073D01*
X002034Y015016D01*
X002034Y014960D01*
X002091Y014903D01*
X002261Y014903D01*
X002091Y014733D02*
X002034Y014789D01*
X002091Y015733D02*
X002034Y015789D01*
X002034Y015846D01*
X002091Y015903D01*
X002204Y015903D01*
X002261Y015846D01*
X002261Y015789D01*
X002204Y015733D01*
X002091Y015733D01*
X002091Y015903D02*
X002034Y015960D01*
X002034Y016016D01*
X002091Y016073D01*
X002204Y016073D01*
X002261Y016016D01*
X002261Y015960D01*
X002204Y015903D01*
X002034Y017233D02*
X002034Y017289D01*
X002261Y017516D01*
X002261Y017573D01*
X002034Y017573D01*
X002091Y018233D02*
X002204Y018233D01*
X002261Y018289D01*
X002261Y018346D01*
X002204Y018403D01*
X002034Y018403D01*
X002034Y018289D01*
X002091Y018233D01*
X002034Y018403D02*
X002147Y018516D01*
X002261Y018573D01*
X002204Y019233D02*
X002091Y019233D01*
X002034Y019289D01*
X002034Y019403D02*
X002147Y019460D01*
X002204Y019460D01*
X002261Y019403D01*
X002261Y019289D01*
X002204Y019233D01*
X002034Y019403D02*
X002034Y019573D01*
X002261Y019573D01*
X002204Y020233D02*
X002204Y020573D01*
X002034Y020403D01*
X002261Y020403D01*
X002204Y021233D02*
X002091Y021233D01*
X002034Y021289D01*
X002147Y021403D02*
X002204Y021403D01*
X002261Y021346D01*
X002261Y021289D01*
X002204Y021233D01*
X002204Y021403D02*
X002261Y021460D01*
X002261Y021516D01*
X002204Y021573D01*
X002091Y021573D01*
X002034Y021516D01*
X002034Y022233D02*
X002261Y022460D01*
X002261Y022516D01*
X002204Y022573D01*
X002091Y022573D01*
X002034Y022516D01*
X002034Y022233D02*
X002261Y022233D01*
X002147Y023233D02*
X002147Y023573D01*
X002034Y023573D02*
X002261Y023573D01*
X002402Y023573D02*
X002629Y023233D01*
X002402Y023233D02*
X002629Y023573D01*
X002629Y024233D02*
X002402Y024573D01*
X002261Y024516D02*
X002261Y024403D01*
X002204Y024346D01*
X002034Y024346D01*
X002034Y024233D02*
X002034Y024573D01*
X002204Y024573D01*
X002261Y024516D01*
X002147Y024346D02*
X002261Y024233D01*
X002402Y024233D02*
X002629Y024573D01*
X013004Y024403D02*
X013006Y024466D01*
X013012Y024528D01*
X013022Y024590D01*
X013035Y024652D01*
X013053Y024712D01*
X013074Y024771D01*
X013099Y024829D01*
X013128Y024885D01*
X013160Y024939D01*
X013195Y024991D01*
X013233Y025040D01*
X013275Y025088D01*
X013319Y025132D01*
X013367Y025174D01*
X013416Y025212D01*
X013468Y025247D01*
X013522Y025279D01*
X013578Y025308D01*
X013636Y025333D01*
X013695Y025354D01*
X013755Y025372D01*
X013817Y025385D01*
X013879Y025395D01*
X013941Y025401D01*
X014004Y025403D01*
X014067Y025401D01*
X014129Y025395D01*
X014191Y025385D01*
X014253Y025372D01*
X014313Y025354D01*
X014372Y025333D01*
X014430Y025308D01*
X014486Y025279D01*
X014540Y025247D01*
X014592Y025212D01*
X014641Y025174D01*
X014689Y025132D01*
X014733Y025088D01*
X014775Y025040D01*
X014813Y024991D01*
X014848Y024939D01*
X014880Y024885D01*
X014909Y024829D01*
X014934Y024771D01*
X014955Y024712D01*
X014973Y024652D01*
X014986Y024590D01*
X014996Y024528D01*
X015002Y024466D01*
X015004Y024403D01*
X015002Y024340D01*
X014996Y024278D01*
X014986Y024216D01*
X014973Y024154D01*
X014955Y024094D01*
X014934Y024035D01*
X014909Y023977D01*
X014880Y023921D01*
X014848Y023867D01*
X014813Y023815D01*
X014775Y023766D01*
X014733Y023718D01*
X014689Y023674D01*
X014641Y023632D01*
X014592Y023594D01*
X014540Y023559D01*
X014486Y023527D01*
X014430Y023498D01*
X014372Y023473D01*
X014313Y023452D01*
X014253Y023434D01*
X014191Y023421D01*
X014129Y023411D01*
X014067Y023405D01*
X014004Y023403D01*
X013941Y023405D01*
X013879Y023411D01*
X013817Y023421D01*
X013755Y023434D01*
X013695Y023452D01*
X013636Y023473D01*
X013578Y023498D01*
X013522Y023527D01*
X013468Y023559D01*
X013416Y023594D01*
X013367Y023632D01*
X013319Y023674D01*
X013275Y023718D01*
X013233Y023766D01*
X013195Y023815D01*
X013160Y023867D01*
X013128Y023921D01*
X013099Y023977D01*
X013074Y024035D01*
X013053Y024094D01*
X013035Y024154D01*
X013022Y024216D01*
X013012Y024278D01*
X013006Y024340D01*
X013004Y024403D01*
X013004Y020903D02*
X013006Y020966D01*
X013012Y021028D01*
X013022Y021090D01*
X013035Y021152D01*
X013053Y021212D01*
X013074Y021271D01*
X013099Y021329D01*
X013128Y021385D01*
X013160Y021439D01*
X013195Y021491D01*
X013233Y021540D01*
X013275Y021588D01*
X013319Y021632D01*
X013367Y021674D01*
X013416Y021712D01*
X013468Y021747D01*
X013522Y021779D01*
X013578Y021808D01*
X013636Y021833D01*
X013695Y021854D01*
X013755Y021872D01*
X013817Y021885D01*
X013879Y021895D01*
X013941Y021901D01*
X014004Y021903D01*
X014067Y021901D01*
X014129Y021895D01*
X014191Y021885D01*
X014253Y021872D01*
X014313Y021854D01*
X014372Y021833D01*
X014430Y021808D01*
X014486Y021779D01*
X014540Y021747D01*
X014592Y021712D01*
X014641Y021674D01*
X014689Y021632D01*
X014733Y021588D01*
X014775Y021540D01*
X014813Y021491D01*
X014848Y021439D01*
X014880Y021385D01*
X014909Y021329D01*
X014934Y021271D01*
X014955Y021212D01*
X014973Y021152D01*
X014986Y021090D01*
X014996Y021028D01*
X015002Y020966D01*
X015004Y020903D01*
X015002Y020840D01*
X014996Y020778D01*
X014986Y020716D01*
X014973Y020654D01*
X014955Y020594D01*
X014934Y020535D01*
X014909Y020477D01*
X014880Y020421D01*
X014848Y020367D01*
X014813Y020315D01*
X014775Y020266D01*
X014733Y020218D01*
X014689Y020174D01*
X014641Y020132D01*
X014592Y020094D01*
X014540Y020059D01*
X014486Y020027D01*
X014430Y019998D01*
X014372Y019973D01*
X014313Y019952D01*
X014253Y019934D01*
X014191Y019921D01*
X014129Y019911D01*
X014067Y019905D01*
X014004Y019903D01*
X013941Y019905D01*
X013879Y019911D01*
X013817Y019921D01*
X013755Y019934D01*
X013695Y019952D01*
X013636Y019973D01*
X013578Y019998D01*
X013522Y020027D01*
X013468Y020059D01*
X013416Y020094D01*
X013367Y020132D01*
X013319Y020174D01*
X013275Y020218D01*
X013233Y020266D01*
X013195Y020315D01*
X013160Y020367D01*
X013128Y020421D01*
X013099Y020477D01*
X013074Y020535D01*
X013053Y020594D01*
X013035Y020654D01*
X013022Y020716D01*
X013012Y020778D01*
X013006Y020840D01*
X013004Y020903D01*
X013004Y016903D02*
X013006Y016966D01*
X013012Y017028D01*
X013022Y017090D01*
X013035Y017152D01*
X013053Y017212D01*
X013074Y017271D01*
X013099Y017329D01*
X013128Y017385D01*
X013160Y017439D01*
X013195Y017491D01*
X013233Y017540D01*
X013275Y017588D01*
X013319Y017632D01*
X013367Y017674D01*
X013416Y017712D01*
X013468Y017747D01*
X013522Y017779D01*
X013578Y017808D01*
X013636Y017833D01*
X013695Y017854D01*
X013755Y017872D01*
X013817Y017885D01*
X013879Y017895D01*
X013941Y017901D01*
X014004Y017903D01*
X014067Y017901D01*
X014129Y017895D01*
X014191Y017885D01*
X014253Y017872D01*
X014313Y017854D01*
X014372Y017833D01*
X014430Y017808D01*
X014486Y017779D01*
X014540Y017747D01*
X014592Y017712D01*
X014641Y017674D01*
X014689Y017632D01*
X014733Y017588D01*
X014775Y017540D01*
X014813Y017491D01*
X014848Y017439D01*
X014880Y017385D01*
X014909Y017329D01*
X014934Y017271D01*
X014955Y017212D01*
X014973Y017152D01*
X014986Y017090D01*
X014996Y017028D01*
X015002Y016966D01*
X015004Y016903D01*
X015002Y016840D01*
X014996Y016778D01*
X014986Y016716D01*
X014973Y016654D01*
X014955Y016594D01*
X014934Y016535D01*
X014909Y016477D01*
X014880Y016421D01*
X014848Y016367D01*
X014813Y016315D01*
X014775Y016266D01*
X014733Y016218D01*
X014689Y016174D01*
X014641Y016132D01*
X014592Y016094D01*
X014540Y016059D01*
X014486Y016027D01*
X014430Y015998D01*
X014372Y015973D01*
X014313Y015952D01*
X014253Y015934D01*
X014191Y015921D01*
X014129Y015911D01*
X014067Y015905D01*
X014004Y015903D01*
X013941Y015905D01*
X013879Y015911D01*
X013817Y015921D01*
X013755Y015934D01*
X013695Y015952D01*
X013636Y015973D01*
X013578Y015998D01*
X013522Y016027D01*
X013468Y016059D01*
X013416Y016094D01*
X013367Y016132D01*
X013319Y016174D01*
X013275Y016218D01*
X013233Y016266D01*
X013195Y016315D01*
X013160Y016367D01*
X013128Y016421D01*
X013099Y016477D01*
X013074Y016535D01*
X013053Y016594D01*
X013035Y016654D01*
X013022Y016716D01*
X013012Y016778D01*
X013006Y016840D01*
X013004Y016903D01*
X013004Y013403D02*
X013006Y013466D01*
X013012Y013528D01*
X013022Y013590D01*
X013035Y013652D01*
X013053Y013712D01*
X013074Y013771D01*
X013099Y013829D01*
X013128Y013885D01*
X013160Y013939D01*
X013195Y013991D01*
X013233Y014040D01*
X013275Y014088D01*
X013319Y014132D01*
X013367Y014174D01*
X013416Y014212D01*
X013468Y014247D01*
X013522Y014279D01*
X013578Y014308D01*
X013636Y014333D01*
X013695Y014354D01*
X013755Y014372D01*
X013817Y014385D01*
X013879Y014395D01*
X013941Y014401D01*
X014004Y014403D01*
X014067Y014401D01*
X014129Y014395D01*
X014191Y014385D01*
X014253Y014372D01*
X014313Y014354D01*
X014372Y014333D01*
X014430Y014308D01*
X014486Y014279D01*
X014540Y014247D01*
X014592Y014212D01*
X014641Y014174D01*
X014689Y014132D01*
X014733Y014088D01*
X014775Y014040D01*
X014813Y013991D01*
X014848Y013939D01*
X014880Y013885D01*
X014909Y013829D01*
X014934Y013771D01*
X014955Y013712D01*
X014973Y013652D01*
X014986Y013590D01*
X014996Y013528D01*
X015002Y013466D01*
X015004Y013403D01*
X015002Y013340D01*
X014996Y013278D01*
X014986Y013216D01*
X014973Y013154D01*
X014955Y013094D01*
X014934Y013035D01*
X014909Y012977D01*
X014880Y012921D01*
X014848Y012867D01*
X014813Y012815D01*
X014775Y012766D01*
X014733Y012718D01*
X014689Y012674D01*
X014641Y012632D01*
X014592Y012594D01*
X014540Y012559D01*
X014486Y012527D01*
X014430Y012498D01*
X014372Y012473D01*
X014313Y012452D01*
X014253Y012434D01*
X014191Y012421D01*
X014129Y012411D01*
X014067Y012405D01*
X014004Y012403D01*
X013941Y012405D01*
X013879Y012411D01*
X013817Y012421D01*
X013755Y012434D01*
X013695Y012452D01*
X013636Y012473D01*
X013578Y012498D01*
X013522Y012527D01*
X013468Y012559D01*
X013416Y012594D01*
X013367Y012632D01*
X013319Y012674D01*
X013275Y012718D01*
X013233Y012766D01*
X013195Y012815D01*
X013160Y012867D01*
X013128Y012921D01*
X013099Y012977D01*
X013074Y013035D01*
X013053Y013094D01*
X013035Y013154D01*
X013022Y013216D01*
X013012Y013278D01*
X013006Y013340D01*
X013004Y013403D01*
X012204Y010803D02*
X013804Y010803D01*
X013821Y010801D01*
X013838Y010797D01*
X013854Y010790D01*
X013868Y010780D01*
X013881Y010767D01*
X013891Y010753D01*
X013898Y010737D01*
X013902Y010720D01*
X013904Y010703D01*
X013904Y010103D01*
X013902Y010086D01*
X013898Y010069D01*
X013891Y010053D01*
X013881Y010039D01*
X013868Y010026D01*
X013854Y010016D01*
X013838Y010009D01*
X013821Y010005D01*
X013804Y010003D01*
X012204Y010003D01*
X012187Y010005D01*
X012170Y010009D01*
X012154Y010016D01*
X012140Y010026D01*
X012127Y010039D01*
X012117Y010053D01*
X012110Y010069D01*
X012106Y010086D01*
X012104Y010103D01*
X012104Y010703D01*
X012106Y010720D01*
X012110Y010737D01*
X012117Y010753D01*
X012127Y010767D01*
X012140Y010780D01*
X012154Y010790D01*
X012170Y010797D01*
X012187Y010801D01*
X012204Y010803D01*
X012754Y010403D02*
X013004Y010403D01*
X013004Y010153D01*
X013004Y010403D02*
X013004Y010653D01*
X013004Y010403D02*
X013404Y010653D01*
X013404Y010153D01*
X013004Y010403D01*
X013604Y010403D01*
X017304Y006003D02*
X017304Y005703D01*
X017154Y005853D02*
X017454Y005853D01*
X016904Y005403D02*
X016906Y005483D01*
X016912Y005562D01*
X016922Y005641D01*
X016936Y005720D01*
X016953Y005798D01*
X016975Y005875D01*
X017000Y005950D01*
X017030Y006024D01*
X017062Y006097D01*
X017099Y006168D01*
X017139Y006237D01*
X017182Y006304D01*
X017229Y006369D01*
X017278Y006431D01*
X017331Y006491D01*
X017387Y006548D01*
X017445Y006603D01*
X017506Y006654D01*
X017570Y006702D01*
X017636Y006747D01*
X017704Y006789D01*
X017774Y006827D01*
X017846Y006861D01*
X017919Y006892D01*
X017994Y006920D01*
X018071Y006943D01*
X018148Y006963D01*
X018226Y006979D01*
X018305Y006991D01*
X018384Y006999D01*
X018464Y007003D01*
X018544Y007003D01*
X018624Y006999D01*
X018703Y006991D01*
X018782Y006979D01*
X018860Y006963D01*
X018937Y006943D01*
X019014Y006920D01*
X019089Y006892D01*
X019162Y006861D01*
X019234Y006827D01*
X019304Y006789D01*
X019372Y006747D01*
X019438Y006702D01*
X019502Y006654D01*
X019563Y006603D01*
X019621Y006548D01*
X019677Y006491D01*
X019730Y006431D01*
X019779Y006369D01*
X019826Y006304D01*
X019869Y006237D01*
X019909Y006168D01*
X019946Y006097D01*
X019978Y006024D01*
X020008Y005950D01*
X020033Y005875D01*
X020055Y005798D01*
X020072Y005720D01*
X020086Y005641D01*
X020096Y005562D01*
X020102Y005483D01*
X020104Y005403D01*
X020102Y005323D01*
X020096Y005244D01*
X020086Y005165D01*
X020072Y005086D01*
X020055Y005008D01*
X020033Y004931D01*
X020008Y004856D01*
X019978Y004782D01*
X019946Y004709D01*
X019909Y004638D01*
X019869Y004569D01*
X019826Y004502D01*
X019779Y004437D01*
X019730Y004375D01*
X019677Y004315D01*
X019621Y004258D01*
X019563Y004203D01*
X019502Y004152D01*
X019438Y004104D01*
X019372Y004059D01*
X019304Y004017D01*
X019234Y003979D01*
X019162Y003945D01*
X019089Y003914D01*
X019014Y003886D01*
X018937Y003863D01*
X018860Y003843D01*
X018782Y003827D01*
X018703Y003815D01*
X018624Y003807D01*
X018544Y003803D01*
X018464Y003803D01*
X018384Y003807D01*
X018305Y003815D01*
X018226Y003827D01*
X018148Y003843D01*
X018071Y003863D01*
X017994Y003886D01*
X017919Y003914D01*
X017846Y003945D01*
X017774Y003979D01*
X017704Y004017D01*
X017636Y004059D01*
X017570Y004104D01*
X017506Y004152D01*
X017445Y004203D01*
X017387Y004258D01*
X017331Y004315D01*
X017278Y004375D01*
X017229Y004437D01*
X017182Y004502D01*
X017139Y004569D01*
X017099Y004638D01*
X017062Y004709D01*
X017030Y004782D01*
X017000Y004856D01*
X016975Y004931D01*
X016953Y005008D01*
X016936Y005086D01*
X016922Y005165D01*
X016912Y005244D01*
X016906Y005323D01*
X016904Y005403D01*
X018395Y012233D02*
X018395Y012573D01*
X018565Y012573D01*
X018622Y012516D01*
X018622Y012403D01*
X018565Y012346D01*
X018395Y012346D01*
X018509Y012346D02*
X018622Y012233D01*
X018763Y012289D02*
X018763Y012403D01*
X018820Y012460D01*
X018934Y012460D01*
X018990Y012403D01*
X018990Y012346D01*
X018763Y012346D01*
X018763Y012289D02*
X018820Y012233D01*
X018934Y012233D01*
X019132Y012233D02*
X019302Y012233D01*
X019359Y012289D01*
X019302Y012346D01*
X019188Y012346D01*
X019132Y012403D01*
X019188Y012460D01*
X019359Y012460D01*
X019500Y012403D02*
X019557Y012460D01*
X019670Y012460D01*
X019727Y012403D01*
X019727Y012346D01*
X019500Y012346D01*
X019500Y012289D02*
X019500Y012403D01*
X019500Y012289D02*
X019557Y012233D01*
X019670Y012233D01*
X019868Y012460D02*
X019982Y012460D01*
X019925Y012516D02*
X019925Y012289D01*
X019982Y012233D01*
X019859Y013233D02*
X019972Y013346D01*
X019972Y013573D01*
X019746Y013573D02*
X019746Y013346D01*
X019859Y013233D01*
X019604Y013289D02*
X019547Y013233D01*
X019434Y013233D01*
X019377Y013289D01*
X019250Y013289D02*
X019250Y013233D01*
X019193Y013233D01*
X019193Y013289D01*
X019250Y013289D01*
X019052Y013289D02*
X018995Y013233D01*
X018882Y013233D01*
X018825Y013289D01*
X018938Y013403D02*
X018995Y013403D01*
X019052Y013346D01*
X019052Y013289D01*
X018995Y013403D02*
X019052Y013460D01*
X019052Y013516D01*
X018995Y013573D01*
X018882Y013573D01*
X018825Y013516D01*
X018683Y013403D02*
X018457Y013403D01*
X018570Y013516D02*
X018570Y013289D01*
X019122Y014289D02*
X019122Y014516D01*
X019009Y014403D02*
X019236Y014403D01*
X019377Y014403D02*
X019491Y014460D01*
X019547Y014460D01*
X019604Y014403D01*
X019604Y014289D01*
X019547Y014233D01*
X019434Y014233D01*
X019377Y014289D01*
X019377Y014403D02*
X019377Y014573D01*
X019604Y014573D01*
X019746Y014573D02*
X019746Y014346D01*
X019859Y014233D01*
X019972Y014346D01*
X019972Y014573D01*
X019916Y015233D02*
X019972Y015289D01*
X019972Y015516D01*
X019916Y015573D01*
X019746Y015573D01*
X019746Y015233D01*
X019916Y015233D01*
X019604Y015233D02*
X019604Y015573D01*
X019377Y015573D02*
X019377Y015233D01*
X019236Y015289D02*
X019236Y015403D01*
X019122Y015403D01*
X019009Y015516D02*
X019066Y015573D01*
X019179Y015573D01*
X019236Y015516D01*
X019377Y015573D02*
X019604Y015233D01*
X019236Y015289D02*
X019179Y015233D01*
X019066Y015233D01*
X019009Y015289D01*
X019009Y015516D01*
X019066Y016233D02*
X019009Y016289D01*
X019009Y016516D01*
X019066Y016573D01*
X019179Y016573D01*
X019236Y016516D01*
X019236Y016403D02*
X019122Y016403D01*
X019236Y016403D02*
X019236Y016289D01*
X019179Y016233D01*
X019066Y016233D01*
X019377Y016233D02*
X019377Y016573D01*
X019604Y016233D01*
X019604Y016573D01*
X019746Y016573D02*
X019746Y016233D01*
X019916Y016233D01*
X019972Y016289D01*
X019972Y016516D01*
X019916Y016573D01*
X019746Y016573D01*
X019746Y017233D02*
X019746Y017460D01*
X019916Y017460D01*
X019972Y017403D01*
X019972Y017233D01*
X019614Y017233D02*
X019500Y017233D01*
X019557Y017233D02*
X019557Y017460D01*
X019500Y017460D01*
X019557Y017573D02*
X019557Y017630D01*
X019359Y017573D02*
X019359Y017346D01*
X019245Y017233D01*
X019132Y017346D01*
X019132Y017573D01*
X019802Y019233D02*
X019746Y019289D01*
X019972Y019516D01*
X019972Y019289D01*
X019916Y019233D01*
X019802Y019233D01*
X019746Y019289D02*
X019746Y019516D01*
X019802Y019573D01*
X019916Y019573D01*
X019972Y019516D01*
X019972Y020233D02*
X019746Y020233D01*
X019859Y020233D02*
X019859Y020573D01*
X019746Y020460D01*
X019454Y020413D02*
X019227Y020413D01*
X019114Y020527D01*
X019227Y020640D01*
X019454Y020640D01*
X019454Y020782D02*
X019227Y020782D01*
X019227Y020952D01*
X019284Y021009D01*
X019454Y021009D01*
X019397Y021150D02*
X019341Y021207D01*
X019341Y021377D01*
X019284Y021377D02*
X019454Y021377D01*
X019454Y021207D01*
X019397Y021150D01*
X019227Y021207D02*
X019227Y021320D01*
X019284Y021377D01*
X019454Y021518D02*
X019454Y021632D01*
X019454Y021575D02*
X019114Y021575D01*
X019114Y021518D01*
X019284Y021764D02*
X019227Y021821D01*
X019227Y021934D01*
X019284Y021991D01*
X019397Y021991D01*
X019454Y021934D01*
X019454Y021821D01*
X019397Y021764D01*
X019284Y021764D01*
X019284Y022132D02*
X019227Y022189D01*
X019227Y022359D01*
X019511Y022359D01*
X019567Y022302D01*
X019567Y022246D01*
X019454Y022189D02*
X019454Y022359D01*
X019454Y022189D02*
X019397Y022132D01*
X019284Y022132D01*
X019746Y022289D02*
X019802Y022233D01*
X019916Y022233D01*
X019972Y022289D01*
X019972Y022346D01*
X019916Y022403D01*
X019859Y022403D01*
X019916Y022403D02*
X019972Y022460D01*
X019972Y022516D01*
X019916Y022573D01*
X019802Y022573D01*
X019746Y022516D01*
X019454Y022869D02*
X019454Y022982D01*
X019454Y022925D02*
X019114Y022925D01*
X019114Y022869D02*
X019114Y022982D01*
X019227Y023114D02*
X019227Y023284D01*
X019284Y023341D01*
X019454Y023341D01*
X019454Y023114D02*
X019227Y023114D01*
X019746Y023403D02*
X019972Y023403D01*
X019916Y023233D02*
X019916Y023573D01*
X019746Y023403D01*
X019802Y024233D02*
X019746Y024289D01*
X019802Y024233D02*
X019916Y024233D01*
X019972Y024289D01*
X019972Y024403D01*
X019916Y024460D01*
X019859Y024460D01*
X019746Y024403D01*
X019746Y024573D01*
X019972Y024573D01*
X019916Y021573D02*
X019802Y021573D01*
X019746Y021516D01*
X019916Y021573D02*
X019972Y021516D01*
X019972Y021460D01*
X019746Y021233D01*
X019972Y021233D01*
X019284Y020640D02*
X019284Y020413D01*
X019434Y013573D02*
X019547Y013573D01*
X019604Y013516D01*
X019604Y013460D01*
X019547Y013403D01*
X019604Y013346D01*
X019604Y013289D01*
X019547Y013403D02*
X019491Y013403D01*
X019377Y013516D02*
X019434Y013573D01*
D12*
X003604Y005403D02*
X003607Y005521D01*
X003616Y005638D01*
X003630Y005755D01*
X003650Y005871D01*
X003676Y005986D01*
X003707Y006100D01*
X003744Y006212D01*
X003787Y006321D01*
X003834Y006429D01*
X003887Y006534D01*
X003945Y006637D01*
X004008Y006736D01*
X004076Y006833D01*
X004149Y006926D01*
X004226Y007015D01*
X004307Y007100D01*
X004392Y007181D01*
X004481Y007258D01*
X004574Y007331D01*
X004671Y007399D01*
X004770Y007462D01*
X004873Y007520D01*
X004978Y007573D01*
X005086Y007620D01*
X005195Y007663D01*
X005307Y007700D01*
X005421Y007731D01*
X005536Y007757D01*
X005652Y007777D01*
X005769Y007791D01*
X005886Y007800D01*
X006004Y007803D01*
X006122Y007800D01*
X006239Y007791D01*
X006356Y007777D01*
X006472Y007757D01*
X006587Y007731D01*
X006701Y007700D01*
X006813Y007663D01*
X006922Y007620D01*
X007030Y007573D01*
X007135Y007520D01*
X007238Y007462D01*
X007337Y007399D01*
X007434Y007331D01*
X007527Y007258D01*
X007616Y007181D01*
X007701Y007100D01*
X007782Y007015D01*
X007859Y006926D01*
X007932Y006833D01*
X008000Y006736D01*
X008063Y006637D01*
X008121Y006534D01*
X008174Y006429D01*
X008221Y006321D01*
X008264Y006212D01*
X008301Y006100D01*
X008332Y005986D01*
X008358Y005871D01*
X008378Y005755D01*
X008392Y005638D01*
X008401Y005521D01*
X008404Y005403D01*
X008401Y005285D01*
X008392Y005168D01*
X008378Y005051D01*
X008358Y004935D01*
X008332Y004820D01*
X008301Y004706D01*
X008264Y004594D01*
X008221Y004485D01*
X008174Y004377D01*
X008121Y004272D01*
X008063Y004169D01*
X008000Y004070D01*
X007932Y003973D01*
X007859Y003880D01*
X007782Y003791D01*
X007701Y003706D01*
X007616Y003625D01*
X007527Y003548D01*
X007434Y003475D01*
X007337Y003407D01*
X007238Y003344D01*
X007135Y003286D01*
X007030Y003233D01*
X006922Y003186D01*
X006813Y003143D01*
X006701Y003106D01*
X006587Y003075D01*
X006472Y003049D01*
X006356Y003029D01*
X006239Y003015D01*
X006122Y003006D01*
X006004Y003003D01*
X005886Y003006D01*
X005769Y003015D01*
X005652Y003029D01*
X005536Y003049D01*
X005421Y003075D01*
X005307Y003106D01*
X005195Y003143D01*
X005086Y003186D01*
X004978Y003233D01*
X004873Y003286D01*
X004770Y003344D01*
X004671Y003407D01*
X004574Y003475D01*
X004481Y003548D01*
X004392Y003625D01*
X004307Y003706D01*
X004226Y003791D01*
X004149Y003880D01*
X004076Y003973D01*
X004008Y004070D01*
X003945Y004169D01*
X003887Y004272D01*
X003834Y004377D01*
X003787Y004485D01*
X003744Y004594D01*
X003707Y004706D01*
X003676Y004820D01*
X003650Y004935D01*
X003630Y005051D01*
X003616Y005168D01*
X003607Y005285D01*
X003604Y005403D01*
X009504Y003222D02*
X015504Y003222D01*
X015504Y008340D01*
X009504Y008340D01*
X009504Y003222D01*
X015004Y012653D02*
X015004Y014153D01*
X015004Y016153D02*
X015004Y017653D01*
X015004Y020153D02*
X015004Y021653D01*
X015004Y023653D02*
X015004Y025153D01*
D13*
X014961Y025207D01*
X014915Y025259D01*
X014866Y025308D01*
X014814Y025355D01*
X014760Y025398D01*
X014704Y025439D01*
X014645Y025476D01*
X014585Y025510D01*
X014522Y025540D01*
X014459Y025567D01*
X014393Y025591D01*
X014327Y025611D01*
X014259Y025627D01*
X014191Y025639D01*
X014122Y025647D01*
X014053Y025652D01*
X013983Y025653D01*
X013914Y025650D01*
X013845Y025643D01*
X013777Y025632D01*
X013709Y025618D01*
X013642Y025599D01*
X013576Y025577D01*
X013511Y025552D01*
X013448Y025523D01*
X013387Y025490D01*
X013328Y025454D01*
X013271Y025415D01*
X013215Y025373D01*
X013163Y025328D01*
X013113Y025280D01*
X013066Y025229D01*
X013021Y025175D01*
X012980Y025120D01*
X012942Y025062D01*
X012907Y025002D01*
X012875Y024940D01*
X012847Y024877D01*
X012823Y024812D01*
X012802Y024746D01*
X012785Y024678D01*
X012771Y024610D01*
X012762Y024541D01*
X012756Y024472D01*
X012754Y024403D01*
X012756Y024334D01*
X012762Y024265D01*
X012771Y024196D01*
X012785Y024128D01*
X012802Y024060D01*
X012823Y023994D01*
X012847Y023929D01*
X012875Y023866D01*
X012907Y023804D01*
X012942Y023744D01*
X012980Y023686D01*
X013021Y023631D01*
X013066Y023577D01*
X013113Y023526D01*
X013163Y023478D01*
X013215Y023433D01*
X013271Y023391D01*
X013328Y023352D01*
X013387Y023316D01*
X013448Y023283D01*
X013511Y023254D01*
X013576Y023229D01*
X013642Y023207D01*
X013709Y023188D01*
X013777Y023174D01*
X013845Y023163D01*
X013914Y023156D01*
X013983Y023153D01*
X014053Y023154D01*
X014122Y023159D01*
X014191Y023167D01*
X014259Y023179D01*
X014327Y023195D01*
X014393Y023215D01*
X014459Y023239D01*
X014522Y023266D01*
X014585Y023296D01*
X014645Y023330D01*
X014704Y023367D01*
X014760Y023408D01*
X014814Y023451D01*
X014866Y023498D01*
X014915Y023547D01*
X014961Y023599D01*
X015004Y023653D01*
X015004Y021653D02*
X014961Y021707D01*
X014915Y021759D01*
X014866Y021808D01*
X014814Y021855D01*
X014760Y021898D01*
X014704Y021939D01*
X014645Y021976D01*
X014585Y022010D01*
X014522Y022040D01*
X014459Y022067D01*
X014393Y022091D01*
X014327Y022111D01*
X014259Y022127D01*
X014191Y022139D01*
X014122Y022147D01*
X014053Y022152D01*
X013983Y022153D01*
X013914Y022150D01*
X013845Y022143D01*
X013777Y022132D01*
X013709Y022118D01*
X013642Y022099D01*
X013576Y022077D01*
X013511Y022052D01*
X013448Y022023D01*
X013387Y021990D01*
X013328Y021954D01*
X013271Y021915D01*
X013215Y021873D01*
X013163Y021828D01*
X013113Y021780D01*
X013066Y021729D01*
X013021Y021675D01*
X012980Y021620D01*
X012942Y021562D01*
X012907Y021502D01*
X012875Y021440D01*
X012847Y021377D01*
X012823Y021312D01*
X012802Y021246D01*
X012785Y021178D01*
X012771Y021110D01*
X012762Y021041D01*
X012756Y020972D01*
X012754Y020903D01*
X012756Y020834D01*
X012762Y020765D01*
X012771Y020696D01*
X012785Y020628D01*
X012802Y020560D01*
X012823Y020494D01*
X012847Y020429D01*
X012875Y020366D01*
X012907Y020304D01*
X012942Y020244D01*
X012980Y020186D01*
X013021Y020131D01*
X013066Y020077D01*
X013113Y020026D01*
X013163Y019978D01*
X013215Y019933D01*
X013271Y019891D01*
X013328Y019852D01*
X013387Y019816D01*
X013448Y019783D01*
X013511Y019754D01*
X013576Y019729D01*
X013642Y019707D01*
X013709Y019688D01*
X013777Y019674D01*
X013845Y019663D01*
X013914Y019656D01*
X013983Y019653D01*
X014053Y019654D01*
X014122Y019659D01*
X014191Y019667D01*
X014259Y019679D01*
X014327Y019695D01*
X014393Y019715D01*
X014459Y019739D01*
X014522Y019766D01*
X014585Y019796D01*
X014645Y019830D01*
X014704Y019867D01*
X014760Y019908D01*
X014814Y019951D01*
X014866Y019998D01*
X014915Y020047D01*
X014961Y020099D01*
X015004Y020153D01*
X015004Y017653D02*
X014961Y017707D01*
X014915Y017759D01*
X014866Y017808D01*
X014814Y017855D01*
X014760Y017898D01*
X014704Y017939D01*
X014645Y017976D01*
X014585Y018010D01*
X014522Y018040D01*
X014459Y018067D01*
X014393Y018091D01*
X014327Y018111D01*
X014259Y018127D01*
X014191Y018139D01*
X014122Y018147D01*
X014053Y018152D01*
X013983Y018153D01*
X013914Y018150D01*
X013845Y018143D01*
X013777Y018132D01*
X013709Y018118D01*
X013642Y018099D01*
X013576Y018077D01*
X013511Y018052D01*
X013448Y018023D01*
X013387Y017990D01*
X013328Y017954D01*
X013271Y017915D01*
X013215Y017873D01*
X013163Y017828D01*
X013113Y017780D01*
X013066Y017729D01*
X013021Y017675D01*
X012980Y017620D01*
X012942Y017562D01*
X012907Y017502D01*
X012875Y017440D01*
X012847Y017377D01*
X012823Y017312D01*
X012802Y017246D01*
X012785Y017178D01*
X012771Y017110D01*
X012762Y017041D01*
X012756Y016972D01*
X012754Y016903D01*
X012756Y016834D01*
X012762Y016765D01*
X012771Y016696D01*
X012785Y016628D01*
X012802Y016560D01*
X012823Y016494D01*
X012847Y016429D01*
X012875Y016366D01*
X012907Y016304D01*
X012942Y016244D01*
X012980Y016186D01*
X013021Y016131D01*
X013066Y016077D01*
X013113Y016026D01*
X013163Y015978D01*
X013215Y015933D01*
X013271Y015891D01*
X013328Y015852D01*
X013387Y015816D01*
X013448Y015783D01*
X013511Y015754D01*
X013576Y015729D01*
X013642Y015707D01*
X013709Y015688D01*
X013777Y015674D01*
X013845Y015663D01*
X013914Y015656D01*
X013983Y015653D01*
X014053Y015654D01*
X014122Y015659D01*
X014191Y015667D01*
X014259Y015679D01*
X014327Y015695D01*
X014393Y015715D01*
X014459Y015739D01*
X014522Y015766D01*
X014585Y015796D01*
X014645Y015830D01*
X014704Y015867D01*
X014760Y015908D01*
X014814Y015951D01*
X014866Y015998D01*
X014915Y016047D01*
X014961Y016099D01*
X015004Y016153D01*
X015004Y014153D02*
X014961Y014207D01*
X014915Y014259D01*
X014866Y014308D01*
X014814Y014355D01*
X014760Y014398D01*
X014704Y014439D01*
X014645Y014476D01*
X014585Y014510D01*
X014522Y014540D01*
X014459Y014567D01*
X014393Y014591D01*
X014327Y014611D01*
X014259Y014627D01*
X014191Y014639D01*
X014122Y014647D01*
X014053Y014652D01*
X013983Y014653D01*
X013914Y014650D01*
X013845Y014643D01*
X013777Y014632D01*
X013709Y014618D01*
X013642Y014599D01*
X013576Y014577D01*
X013511Y014552D01*
X013448Y014523D01*
X013387Y014490D01*
X013328Y014454D01*
X013271Y014415D01*
X013215Y014373D01*
X013163Y014328D01*
X013113Y014280D01*
X013066Y014229D01*
X013021Y014175D01*
X012980Y014120D01*
X012942Y014062D01*
X012907Y014002D01*
X012875Y013940D01*
X012847Y013877D01*
X012823Y013812D01*
X012802Y013746D01*
X012785Y013678D01*
X012771Y013610D01*
X012762Y013541D01*
X012756Y013472D01*
X012754Y013403D01*
X012756Y013334D01*
X012762Y013265D01*
X012771Y013196D01*
X012785Y013128D01*
X012802Y013060D01*
X012823Y012994D01*
X012847Y012929D01*
X012875Y012866D01*
X012907Y012804D01*
X012942Y012744D01*
X012980Y012686D01*
X013021Y012631D01*
X013066Y012577D01*
X013113Y012526D01*
X013163Y012478D01*
X013215Y012433D01*
X013271Y012391D01*
X013328Y012352D01*
X013387Y012316D01*
X013448Y012283D01*
X013511Y012254D01*
X013576Y012229D01*
X013642Y012207D01*
X013709Y012188D01*
X013777Y012174D01*
X013845Y012163D01*
X013914Y012156D01*
X013983Y012153D01*
X014053Y012154D01*
X014122Y012159D01*
X014191Y012167D01*
X014259Y012179D01*
X014327Y012195D01*
X014393Y012215D01*
X014459Y012239D01*
X014522Y012266D01*
X014585Y012296D01*
X014645Y012330D01*
X014704Y012367D01*
X014760Y012408D01*
X014814Y012451D01*
X014866Y012498D01*
X014915Y012547D01*
X014961Y012599D01*
X015004Y012653D01*
X006524Y010143D02*
X006524Y009403D01*
X006524Y008913D01*
X006524Y008663D01*
X005534Y008663D01*
X005534Y009403D01*
X005534Y009893D01*
X005534Y010143D01*
X006524Y010143D01*
D14*
X015289Y012793D02*
X015364Y012718D01*
X015439Y012793D01*
X015514Y012718D01*
X015589Y012793D01*
X015589Y013018D01*
X015749Y012793D02*
X015824Y012868D01*
X016050Y012868D01*
X016050Y012943D02*
X016050Y012718D01*
X015824Y012718D01*
X015749Y012793D01*
X015824Y013018D02*
X015974Y013018D01*
X016050Y012943D01*
X016210Y013018D02*
X016360Y013018D01*
X016285Y013093D02*
X016285Y012793D01*
X016360Y012718D01*
X016517Y012793D02*
X016517Y012943D01*
X016592Y013018D01*
X016742Y013018D01*
X016817Y012943D01*
X016817Y012868D01*
X016517Y012868D01*
X016517Y012793D02*
X016592Y012718D01*
X016742Y012718D01*
X016977Y012718D02*
X016977Y013018D01*
X016977Y012868D02*
X017127Y013018D01*
X017202Y013018D01*
X015289Y013018D02*
X015289Y012793D01*
X017454Y009603D02*
X017871Y009603D01*
X017871Y009203D02*
X017454Y009203D01*
X017454Y009603D01*
X017854Y009403D02*
X017856Y009470D01*
X017862Y009538D01*
X017872Y009605D01*
X017886Y009671D01*
X017903Y009736D01*
X017925Y009800D01*
X017950Y009863D01*
X017979Y009924D01*
X018011Y009983D01*
X018047Y010040D01*
X018086Y010095D01*
X018128Y010148D01*
X018173Y010198D01*
X018221Y010245D01*
X018272Y010290D01*
X018325Y010331D01*
X018381Y010370D01*
X018439Y010405D01*
X018499Y010436D01*
X018560Y010464D01*
X018623Y010488D01*
X018687Y010509D01*
X018753Y010525D01*
X018819Y010538D01*
X018886Y010547D01*
X018953Y010552D01*
X019021Y010553D01*
X019088Y010550D01*
X019155Y010543D01*
X019222Y010532D01*
X019288Y010517D01*
X019353Y010499D01*
X019417Y010476D01*
X019479Y010450D01*
X019540Y010421D01*
X019598Y010387D01*
X019655Y010351D01*
X019710Y010311D01*
X019762Y010268D01*
X019811Y010222D01*
X019858Y010173D01*
X019902Y010122D01*
X019942Y010068D01*
X019980Y010012D01*
X020014Y009953D01*
X020044Y009893D01*
X020071Y009831D01*
X020095Y009768D01*
X020114Y009703D01*
X020130Y009638D01*
X020142Y009571D01*
X020150Y009504D01*
X020154Y009437D01*
X020154Y009369D01*
X020150Y009302D01*
X020142Y009235D01*
X020130Y009168D01*
X020114Y009103D01*
X020095Y009038D01*
X020071Y008975D01*
X020044Y008913D01*
X020014Y008853D01*
X019980Y008794D01*
X019942Y008738D01*
X019902Y008684D01*
X019858Y008633D01*
X019811Y008584D01*
X019762Y008538D01*
X019710Y008495D01*
X019655Y008455D01*
X019598Y008419D01*
X019540Y008385D01*
X019479Y008356D01*
X019417Y008330D01*
X019353Y008307D01*
X019288Y008289D01*
X019222Y008274D01*
X019155Y008263D01*
X019088Y008256D01*
X019021Y008253D01*
X018953Y008254D01*
X018886Y008259D01*
X018819Y008268D01*
X018753Y008281D01*
X018687Y008297D01*
X018623Y008318D01*
X018560Y008342D01*
X018499Y008370D01*
X018439Y008401D01*
X018381Y008436D01*
X018325Y008475D01*
X018272Y008516D01*
X018221Y008561D01*
X018173Y008608D01*
X018128Y008658D01*
X018086Y008711D01*
X018047Y008766D01*
X018011Y008823D01*
X017979Y008882D01*
X017950Y008943D01*
X017925Y009006D01*
X017903Y009070D01*
X017886Y009135D01*
X017872Y009201D01*
X017862Y009268D01*
X017856Y009336D01*
X017854Y009403D01*
X018281Y016068D02*
X018281Y016518D01*
X018506Y016518D01*
X018581Y016443D01*
X018581Y016293D01*
X018506Y016218D01*
X018281Y016218D01*
X018121Y016218D02*
X018121Y016443D01*
X018046Y016518D01*
X017971Y016443D01*
X017971Y016218D01*
X017821Y016218D02*
X017821Y016518D01*
X017896Y016518D01*
X017971Y016443D01*
X017661Y016443D02*
X017586Y016518D01*
X017436Y016518D01*
X017361Y016443D01*
X017361Y016293D01*
X017436Y016218D01*
X017586Y016218D01*
X017661Y016368D02*
X017361Y016368D01*
X017204Y016518D02*
X017054Y016518D01*
X017129Y016593D02*
X017129Y016293D01*
X017204Y016218D01*
X016895Y016518D02*
X016820Y016518D01*
X016670Y016368D01*
X016670Y016218D02*
X016670Y016518D01*
X016510Y016443D02*
X016510Y016368D01*
X016210Y016368D01*
X016210Y016443D02*
X016285Y016518D01*
X016435Y016518D01*
X016510Y016443D01*
X016435Y016218D02*
X016285Y016218D01*
X016210Y016293D01*
X016210Y016443D01*
X016050Y016518D02*
X015899Y016218D01*
X015749Y016518D01*
X015589Y016443D02*
X015514Y016518D01*
X015364Y016518D01*
X015289Y016443D01*
X015289Y016293D01*
X015364Y016218D01*
X015514Y016218D01*
X015589Y016293D01*
X015589Y016443D01*
X017661Y016443D02*
X017661Y016368D01*
X016670Y020068D02*
X016670Y020518D01*
X016895Y020518D01*
X016970Y020443D01*
X016970Y020293D01*
X016895Y020218D01*
X016670Y020218D01*
X016510Y020218D02*
X016510Y020443D01*
X016435Y020518D01*
X016360Y020443D01*
X016360Y020218D01*
X016210Y020218D02*
X016210Y020518D01*
X016285Y020518D01*
X016360Y020443D01*
X016050Y020518D02*
X016050Y020218D01*
X015824Y020218D01*
X015749Y020293D01*
X015749Y020518D01*
X015589Y020443D02*
X015589Y020293D01*
X015514Y020218D01*
X015289Y020218D01*
X015289Y020068D02*
X015289Y020518D01*
X015514Y020518D01*
X015589Y020443D01*
X015289Y023568D02*
X015289Y024018D01*
X015514Y024018D01*
X015589Y023943D01*
X015589Y023793D01*
X015514Y023718D01*
X015289Y023718D01*
X015749Y023793D02*
X015824Y023718D01*
X015974Y023718D01*
X016050Y023793D01*
X016050Y023943D01*
X015974Y024018D01*
X015824Y024018D01*
X015749Y023943D01*
X015749Y023793D01*
X016210Y023793D02*
X016285Y023718D01*
X016360Y023793D01*
X016435Y023718D01*
X016510Y023793D01*
X016510Y024018D01*
X016670Y023943D02*
X016745Y024018D01*
X016895Y024018D01*
X016970Y023943D01*
X016970Y023868D01*
X016670Y023868D01*
X016670Y023793D02*
X016670Y023943D01*
X016670Y023793D02*
X016745Y023718D01*
X016895Y023718D01*
X017130Y023718D02*
X017130Y024018D01*
X017130Y023868D02*
X017280Y024018D01*
X017356Y024018D01*
X016210Y024018D02*
X016210Y023793D01*
D15*
X012354Y010403D03*
D16*
X011729Y010403D03*
X014279Y010403D03*
D17*
X019881Y009769D02*
X019901Y009715D01*
X019919Y009660D01*
X019933Y009604D01*
X019943Y009547D01*
X019950Y009490D01*
X019954Y009432D01*
X019954Y009374D01*
X019950Y009316D01*
X019943Y009259D01*
X019933Y009202D01*
X019919Y009146D01*
X019901Y009091D01*
X019881Y009037D01*
X019370Y010280D02*
X019313Y010301D01*
X019255Y010319D01*
X019196Y010333D01*
X019136Y010344D01*
X019076Y010350D01*
X019016Y010353D01*
X018955Y010352D01*
X018895Y010347D01*
X018835Y010338D01*
X018775Y010325D01*
X018717Y010309D01*
X018660Y010289D01*
X018604Y010265D01*
X018550Y010238D01*
X018498Y010207D01*
X018447Y010173D01*
X018400Y010136D01*
X018354Y010096D01*
X018311Y010053D01*
X018271Y010007D01*
X018234Y009960D01*
X018200Y009909D01*
X018169Y009857D01*
X018142Y009803D01*
X018118Y009747D01*
X018098Y009690D01*
X018082Y009632D01*
X018069Y009572D01*
X018060Y009512D01*
X018055Y009452D01*
X018054Y009391D01*
X018057Y009331D01*
X018063Y009271D01*
X018074Y009211D01*
X018088Y009152D01*
X018106Y009094D01*
X018127Y009037D01*
X018638Y008526D02*
X018692Y008506D01*
X018747Y008488D01*
X018803Y008474D01*
X018860Y008464D01*
X018917Y008457D01*
X018975Y008453D01*
X019033Y008453D01*
X019091Y008457D01*
X019148Y008464D01*
X019205Y008474D01*
X019261Y008488D01*
X019316Y008506D01*
X019370Y008526D01*
M02*
