G75*
G70*
%OFA0B0*%
%FSLAX24Y24*%
%IPPOS*%
%LPD*%
%AMOC8*
5,1,8,0,0,1.08239X$1,22.5*
%
%ADD10C,0.0820*%
%ADD11C,0.1380*%
%ADD12OC8,0.0640*%
%ADD13C,0.0640*%
%ADD14C,0.0674*%
%ADD15C,0.1340*%
%ADD16C,0.0714*%
%ADD17R,0.0714X0.0714*%
%ADD18C,0.0860*%
%ADD19OC8,0.0710*%
%ADD20C,0.0710*%
%ADD21C,0.1080*%
D10*
X001504Y008903D03*
X001504Y009903D03*
X001504Y010903D03*
X001504Y011903D03*
X001504Y012903D03*
X001504Y013903D03*
X001504Y014903D03*
X001504Y015903D03*
X001504Y017403D03*
X001504Y018403D03*
X001504Y019403D03*
X001504Y020403D03*
X001504Y021403D03*
X001504Y022403D03*
X001504Y023403D03*
X001504Y024403D03*
X020504Y024403D03*
X020504Y023403D03*
X020504Y022403D03*
X020504Y021403D03*
X020504Y020403D03*
X020504Y019403D03*
X020504Y017403D03*
X020504Y016403D03*
X020504Y015403D03*
X020504Y014403D03*
X020504Y013403D03*
X020504Y012403D03*
D11*
X001504Y005403D03*
X018504Y025403D03*
D12*
X014504Y024403D03*
X013504Y024403D03*
X013504Y020903D03*
X014504Y020903D03*
X014504Y016903D03*
X013504Y016903D03*
X013504Y013403D03*
X014504Y013403D03*
X018504Y008903D03*
X019504Y008903D03*
X019504Y009903D03*
D13*
X015284Y010403D02*
X014724Y010403D01*
X011284Y010403D02*
X010724Y010403D01*
X010284Y019403D02*
X009724Y019403D01*
X009724Y020403D02*
X010284Y020403D01*
X010284Y021403D02*
X009724Y021403D01*
X009724Y022403D02*
X010284Y022403D01*
X010284Y023403D02*
X009724Y023403D01*
X009724Y024403D02*
X010284Y024403D01*
D14*
X006988Y005403D03*
X005020Y005403D03*
D15*
X010254Y004403D03*
X014754Y004403D03*
D16*
X013754Y006903D03*
X014254Y007903D03*
X013254Y007903D03*
X012754Y006903D03*
X011754Y006903D03*
X012254Y007903D03*
X011254Y007903D03*
D17*
X010754Y006903D03*
D18*
X007454Y009013D02*
X007454Y009793D01*
X004504Y009793D02*
X004504Y009013D01*
X004504Y016883D02*
X004504Y017663D01*
X007454Y018263D02*
X007454Y019043D01*
D19*
X019204Y005403D03*
D20*
X017804Y005403D03*
D21*
X007504Y021418D02*
X007504Y022418D01*
X007504Y023387D02*
X007504Y024387D01*
X004504Y024387D02*
X004504Y023387D01*
X004504Y022418D02*
X004504Y021418D01*
M02*
