G75*
G70*
%OFA0B0*%
%FSLAX24Y24*%
%IPPOS*%
%LPD*%
%AMOC8*
5,1,8,0,0,1.08239X$1,22.5*
%
%ADD10C,0.0740*%
%ADD11OC8,0.0560*%
%ADD12C,0.0560*%
%ADD13C,0.0594*%
%ADD14C,0.0634*%
%ADD15R,0.0634X0.0634*%
%ADD16C,0.0780*%
%ADD17OC8,0.0630*%
%ADD18C,0.0630*%
%ADD19C,0.1000*%
%ADD20C,0.0300*%
%ADD21C,0.0400*%
D10*
X001504Y008903D03*
X001504Y009903D03*
X001504Y010903D03*
X001504Y011903D03*
X001504Y012903D03*
X001504Y013903D03*
X001504Y014903D03*
X001504Y015903D03*
X001504Y017403D03*
X001504Y018403D03*
X001504Y019403D03*
X001504Y020403D03*
X001504Y021403D03*
X001504Y022403D03*
X001504Y023403D03*
X001504Y024403D03*
X020504Y024403D03*
X020504Y023403D03*
X020504Y022403D03*
X020504Y021403D03*
X020504Y020403D03*
X020504Y019403D03*
X020504Y017403D03*
X020504Y016403D03*
X020504Y015403D03*
X020504Y014403D03*
X020504Y013403D03*
X020504Y012403D03*
D11*
X019504Y009903D03*
X019504Y008903D03*
X018504Y008903D03*
X014504Y013403D03*
X013504Y013403D03*
X013504Y016903D03*
X014504Y016903D03*
X014504Y020903D03*
X013504Y020903D03*
X013504Y024403D03*
X014504Y024403D03*
D12*
X010284Y024403D02*
X009724Y024403D01*
X009724Y023403D02*
X010284Y023403D01*
X010284Y022403D02*
X009724Y022403D01*
X009724Y021403D02*
X010284Y021403D01*
X010284Y020403D02*
X009724Y020403D01*
X009724Y019403D02*
X010284Y019403D01*
X010724Y010403D02*
X011284Y010403D01*
X014724Y010403D02*
X015284Y010403D01*
D13*
X006988Y005403D03*
X005020Y005403D03*
D14*
X011254Y007903D03*
X011754Y006903D03*
X012754Y006903D03*
X013254Y007903D03*
X014254Y007903D03*
X013754Y006903D03*
X012254Y007903D03*
D15*
X010754Y006903D03*
D16*
X007454Y009013D02*
X007454Y009793D01*
X004504Y009793D02*
X004504Y009013D01*
X004504Y016883D02*
X004504Y017663D01*
X007454Y018263D02*
X007454Y019043D01*
D17*
X019204Y005403D03*
D18*
X017804Y005403D03*
D19*
X007504Y021418D02*
X007504Y022418D01*
X007504Y023387D02*
X007504Y024387D01*
X004504Y024387D02*
X004504Y023387D01*
X004504Y022418D02*
X004504Y021418D01*
D20*
X005004Y005403D02*
X005020Y005403D01*
X005004Y005403D02*
X007004Y003403D01*
X017004Y003403D01*
X019004Y005403D01*
X019204Y005403D01*
X019504Y006403D02*
X020504Y007403D01*
X020504Y008903D01*
X019504Y009903D01*
X019004Y010403D01*
X015004Y010403D01*
X016004Y009403D02*
X016504Y009903D01*
X018504Y009903D01*
X019504Y008903D01*
X019504Y006403D02*
X015004Y006403D01*
X014504Y005903D01*
X008004Y005903D01*
X004504Y009403D01*
X002004Y011403D02*
X001504Y010903D01*
X002004Y011403D02*
X012504Y011403D01*
X014504Y013403D01*
X013504Y011403D02*
X012504Y010403D01*
X011004Y010403D01*
X010004Y009903D02*
X010504Y009403D01*
X016004Y009403D01*
X017504Y011403D02*
X013504Y011403D01*
X017504Y011403D02*
X020504Y014403D01*
X014504Y016903D02*
X009504Y011903D01*
X001504Y011903D01*
X001504Y013903D02*
X007504Y013903D01*
X014504Y020903D01*
X008004Y016403D02*
X006004Y018403D01*
X003504Y018403D01*
X001504Y020403D01*
X003004Y020903D02*
X001504Y022403D01*
X001504Y015903D02*
X007504Y015903D01*
X008004Y015403D01*
D21*
X008004Y015403D03*
X008004Y016403D03*
X003004Y020903D03*
X010004Y009903D03*
M02*
