%
M48
M72
T01C0.0200
T02C0.0320
T03C0.0354
T04C0.0394
T05C0.0400
T06C0.0520
T07C0.0551
T08C0.1260
T09C0.1300
%
T01
X10004Y9903
X8004Y15403
X8004Y16403
X3004Y20903
T02
X10004Y21403
X10004Y22403
X10004Y23403
X10004Y24403
X10004Y20403
X10004Y19403
X13504Y20903
X14504Y20903
X14504Y24403
X13504Y24403
X13504Y16903
X14504Y16903
X14504Y13403
X13504Y13403
X15004Y10403
X18504Y8903
X19504Y8903
X19504Y9903
X19204Y5403
X17804Y5403
X11004Y10403
T03
X6988Y5403
X5020Y5403
T04
X10754Y6903
X11254Y7903
X11754Y6903
X12754Y6903
X13254Y7903
X14254Y7903
X13754Y6903
X12254Y7903
T05
X20504Y12403
X20504Y13403
X20504Y14403
X20504Y15403
X20504Y16403
X20504Y17403
X20504Y19403
X20504Y20403
X20504Y21403
X20504Y22403
X20504Y23403
X20504Y24403
X1504Y24403
X1504Y23403
X1504Y22403
X1504Y21403
X1504Y20403
X1504Y19403
X1504Y18403
X1504Y17403
X1504Y15903
X1504Y14903
X1504Y13903
X1504Y12903
X1504Y11903
X1504Y10903
X1504Y9903
X1504Y8903
T06
X4504Y9403
X7454Y9403
X4504Y17273
X7454Y18653
T07
X7504Y21918
X7504Y23887
X4504Y23887
X4504Y21918
T08
X10254Y4403
X14754Y4403
T09
X1504Y5403
X18504Y25403
M30
