G75*
G70*
%OFA0B0*%
%FSLAX24Y24*%
%IPPOS*%
%LPD*%
%AMOC8*
5,1,8,0,0,1.08239X$1,22.5*
%
%ADD10C,0.0820*%
%ADD11C,0.1380*%
%ADD12C,0.0085*%
%ADD13OC8,0.0640*%
%ADD14C,0.0640*%
%ADD15C,0.0674*%
%ADD16C,0.1340*%
%ADD17C,0.0714*%
%ADD18R,0.0714X0.0714*%
%ADD19C,0.0860*%
%ADD20OC8,0.0710*%
%ADD21C,0.0710*%
%ADD22C,0.1080*%
D10*
X001504Y008903D03*
X001504Y009903D03*
X001504Y010903D03*
X001504Y011903D03*
X001504Y012903D03*
X001504Y013903D03*
X001504Y014903D03*
X001504Y015903D03*
X001504Y017403D03*
X001504Y018403D03*
X001504Y019403D03*
X001504Y020403D03*
X001504Y021403D03*
X001504Y022403D03*
X001504Y023403D03*
X001504Y024403D03*
X020504Y024403D03*
X020504Y023403D03*
X020504Y022403D03*
X020504Y021403D03*
X020504Y020403D03*
X020504Y019403D03*
X020504Y017403D03*
X020504Y016403D03*
X020504Y015403D03*
X020504Y014403D03*
X020504Y013403D03*
X020504Y012403D03*
D11*
X001504Y005403D03*
X018504Y025403D03*
D12*
X010356Y017267D02*
X010356Y016641D01*
X009652Y016641D01*
X009652Y017267D01*
X010356Y017267D01*
X010356Y016725D02*
X009652Y016725D01*
X009652Y016809D02*
X010356Y016809D01*
X010356Y016893D02*
X009652Y016893D01*
X009652Y016977D02*
X010356Y016977D01*
X010356Y017061D02*
X009652Y017061D01*
X009652Y017145D02*
X010356Y017145D01*
X010356Y017229D02*
X009652Y017229D01*
X010356Y016164D02*
X010356Y015538D01*
X009652Y015538D01*
X009652Y016164D01*
X010356Y016164D01*
X010356Y015622D02*
X009652Y015622D01*
X009652Y015706D02*
X010356Y015706D01*
X010356Y015790D02*
X009652Y015790D01*
X009652Y015874D02*
X010356Y015874D01*
X010356Y015958D02*
X009652Y015958D01*
X009652Y016042D02*
X010356Y016042D01*
X010356Y016126D02*
X009652Y016126D01*
X010356Y013767D02*
X010356Y013141D01*
X009652Y013141D01*
X009652Y013767D01*
X010356Y013767D01*
X010356Y013225D02*
X009652Y013225D01*
X009652Y013309D02*
X010356Y013309D01*
X010356Y013393D02*
X009652Y013393D01*
X009652Y013477D02*
X010356Y013477D01*
X010356Y013561D02*
X009652Y013561D01*
X009652Y013645D02*
X010356Y013645D01*
X010356Y013729D02*
X009652Y013729D01*
X010356Y012664D02*
X010356Y012038D01*
X009652Y012038D01*
X009652Y012664D01*
X010356Y012664D01*
X010356Y012122D02*
X009652Y012122D01*
X009652Y012206D02*
X010356Y012206D01*
X010356Y012290D02*
X009652Y012290D01*
X009652Y012374D02*
X010356Y012374D01*
X010356Y012458D02*
X009652Y012458D01*
X009652Y012542D02*
X010356Y012542D01*
X010356Y012626D02*
X009652Y012626D01*
D13*
X013504Y013403D03*
X014504Y013403D03*
X014504Y016903D03*
X013504Y016903D03*
X013504Y020903D03*
X014504Y020903D03*
X014504Y024403D03*
X013504Y024403D03*
X019504Y009903D03*
X019504Y008903D03*
X018504Y008903D03*
D14*
X015284Y010403D02*
X014724Y010403D01*
X011284Y010403D02*
X010724Y010403D01*
X010284Y019403D02*
X009724Y019403D01*
X009724Y020403D02*
X010284Y020403D01*
X010284Y021403D02*
X009724Y021403D01*
X009724Y022403D02*
X010284Y022403D01*
X010284Y023403D02*
X009724Y023403D01*
X009724Y024403D02*
X010284Y024403D01*
D15*
X006988Y005403D03*
X005020Y005403D03*
D16*
X010254Y004403D03*
X014754Y004403D03*
D17*
X013754Y006903D03*
X014254Y007903D03*
X013254Y007903D03*
X012754Y006903D03*
X011754Y006903D03*
X012254Y007903D03*
X011254Y007903D03*
D18*
X010754Y006903D03*
D19*
X007454Y009013D02*
X007454Y009793D01*
X004504Y009793D02*
X004504Y009013D01*
X004504Y016883D02*
X004504Y017663D01*
X007454Y018263D02*
X007454Y019043D01*
D20*
X019204Y005403D03*
D21*
X017804Y005403D03*
D22*
X007504Y021418D02*
X007504Y022418D01*
X007504Y023387D02*
X007504Y024387D01*
X004504Y024387D02*
X004504Y023387D01*
X004504Y022418D02*
X004504Y021418D01*
M02*
