G75*
G70*
%OFA0B0*%
%FSLAX24Y24*%
%IPPOS*%
%LPD*%
%AMOC8*
5,1,8,0,0,1.08239X$1,22.5*
%
%ADD10C,0.0000*%
%ADD11C,0.0740*%
%ADD12R,0.0709X0.0630*%
%ADD13OC8,0.0560*%
%ADD14C,0.0560*%
%ADD15C,0.0594*%
%ADD16C,0.0634*%
%ADD17R,0.0634X0.0634*%
%ADD18C,0.0780*%
%ADD19OC8,0.0630*%
%ADD20C,0.0630*%
%ADD21C,0.1000*%
%ADD22C,0.0300*%
%ADD23C,0.0400*%
%ADD24C,0.0860*%
D10*
X000504Y002903D02*
X000504Y026399D01*
X021374Y026399D01*
X021374Y002903D01*
X000504Y002903D01*
X000854Y005403D02*
X000856Y005453D01*
X000862Y005503D01*
X000872Y005553D01*
X000885Y005601D01*
X000902Y005649D01*
X000923Y005695D01*
X000947Y005739D01*
X000975Y005781D01*
X001006Y005821D01*
X001040Y005858D01*
X001077Y005893D01*
X001116Y005924D01*
X001157Y005953D01*
X001201Y005978D01*
X001247Y006000D01*
X001294Y006018D01*
X001342Y006032D01*
X001391Y006043D01*
X001441Y006050D01*
X001491Y006053D01*
X001542Y006052D01*
X001592Y006047D01*
X001642Y006038D01*
X001690Y006026D01*
X001738Y006009D01*
X001784Y005989D01*
X001829Y005966D01*
X001872Y005939D01*
X001912Y005909D01*
X001950Y005876D01*
X001985Y005840D01*
X002018Y005801D01*
X002047Y005760D01*
X002073Y005717D01*
X002096Y005672D01*
X002115Y005625D01*
X002130Y005577D01*
X002142Y005528D01*
X002150Y005478D01*
X002154Y005428D01*
X002154Y005378D01*
X002150Y005328D01*
X002142Y005278D01*
X002130Y005229D01*
X002115Y005181D01*
X002096Y005134D01*
X002073Y005089D01*
X002047Y005046D01*
X002018Y005005D01*
X001985Y004966D01*
X001950Y004930D01*
X001912Y004897D01*
X001872Y004867D01*
X001829Y004840D01*
X001784Y004817D01*
X001738Y004797D01*
X001690Y004780D01*
X001642Y004768D01*
X001592Y004759D01*
X001542Y004754D01*
X001491Y004753D01*
X001441Y004756D01*
X001391Y004763D01*
X001342Y004774D01*
X001294Y004788D01*
X001247Y004806D01*
X001201Y004828D01*
X001157Y004853D01*
X001116Y004882D01*
X001077Y004913D01*
X001040Y004948D01*
X001006Y004985D01*
X000975Y005025D01*
X000947Y005067D01*
X000923Y005111D01*
X000902Y005157D01*
X000885Y005205D01*
X000872Y005253D01*
X000862Y005303D01*
X000856Y005353D01*
X000854Y005403D01*
X009624Y004403D02*
X009626Y004453D01*
X009632Y004503D01*
X009642Y004552D01*
X009656Y004600D01*
X009673Y004647D01*
X009694Y004692D01*
X009719Y004736D01*
X009747Y004777D01*
X009779Y004816D01*
X009813Y004853D01*
X009850Y004887D01*
X009890Y004917D01*
X009932Y004944D01*
X009976Y004968D01*
X010022Y004989D01*
X010069Y005005D01*
X010117Y005018D01*
X010167Y005027D01*
X010216Y005032D01*
X010267Y005033D01*
X010317Y005030D01*
X010366Y005023D01*
X010415Y005012D01*
X010463Y004997D01*
X010509Y004979D01*
X010554Y004957D01*
X010597Y004931D01*
X010638Y004902D01*
X010677Y004870D01*
X010713Y004835D01*
X010745Y004797D01*
X010775Y004757D01*
X010802Y004714D01*
X010825Y004670D01*
X010844Y004624D01*
X010860Y004576D01*
X010872Y004527D01*
X010880Y004478D01*
X010884Y004428D01*
X010884Y004378D01*
X010880Y004328D01*
X010872Y004279D01*
X010860Y004230D01*
X010844Y004182D01*
X010825Y004136D01*
X010802Y004092D01*
X010775Y004049D01*
X010745Y004009D01*
X010713Y003971D01*
X010677Y003936D01*
X010638Y003904D01*
X010597Y003875D01*
X010554Y003849D01*
X010509Y003827D01*
X010463Y003809D01*
X010415Y003794D01*
X010366Y003783D01*
X010317Y003776D01*
X010267Y003773D01*
X010216Y003774D01*
X010167Y003779D01*
X010117Y003788D01*
X010069Y003801D01*
X010022Y003817D01*
X009976Y003838D01*
X009932Y003862D01*
X009890Y003889D01*
X009850Y003919D01*
X009813Y003953D01*
X009779Y003990D01*
X009747Y004029D01*
X009719Y004070D01*
X009694Y004114D01*
X009673Y004159D01*
X009656Y004206D01*
X009642Y004254D01*
X009632Y004303D01*
X009626Y004353D01*
X009624Y004403D01*
X014124Y004403D02*
X014126Y004453D01*
X014132Y004503D01*
X014142Y004552D01*
X014156Y004600D01*
X014173Y004647D01*
X014194Y004692D01*
X014219Y004736D01*
X014247Y004777D01*
X014279Y004816D01*
X014313Y004853D01*
X014350Y004887D01*
X014390Y004917D01*
X014432Y004944D01*
X014476Y004968D01*
X014522Y004989D01*
X014569Y005005D01*
X014617Y005018D01*
X014667Y005027D01*
X014716Y005032D01*
X014767Y005033D01*
X014817Y005030D01*
X014866Y005023D01*
X014915Y005012D01*
X014963Y004997D01*
X015009Y004979D01*
X015054Y004957D01*
X015097Y004931D01*
X015138Y004902D01*
X015177Y004870D01*
X015213Y004835D01*
X015245Y004797D01*
X015275Y004757D01*
X015302Y004714D01*
X015325Y004670D01*
X015344Y004624D01*
X015360Y004576D01*
X015372Y004527D01*
X015380Y004478D01*
X015384Y004428D01*
X015384Y004378D01*
X015380Y004328D01*
X015372Y004279D01*
X015360Y004230D01*
X015344Y004182D01*
X015325Y004136D01*
X015302Y004092D01*
X015275Y004049D01*
X015245Y004009D01*
X015213Y003971D01*
X015177Y003936D01*
X015138Y003904D01*
X015097Y003875D01*
X015054Y003849D01*
X015009Y003827D01*
X014963Y003809D01*
X014915Y003794D01*
X014866Y003783D01*
X014817Y003776D01*
X014767Y003773D01*
X014716Y003774D01*
X014667Y003779D01*
X014617Y003788D01*
X014569Y003801D01*
X014522Y003817D01*
X014476Y003838D01*
X014432Y003862D01*
X014390Y003889D01*
X014350Y003919D01*
X014313Y003953D01*
X014279Y003990D01*
X014247Y004029D01*
X014219Y004070D01*
X014194Y004114D01*
X014173Y004159D01*
X014156Y004206D01*
X014142Y004254D01*
X014132Y004303D01*
X014126Y004353D01*
X014124Y004403D01*
X017854Y025403D02*
X017856Y025453D01*
X017862Y025503D01*
X017872Y025553D01*
X017885Y025601D01*
X017902Y025649D01*
X017923Y025695D01*
X017947Y025739D01*
X017975Y025781D01*
X018006Y025821D01*
X018040Y025858D01*
X018077Y025893D01*
X018116Y025924D01*
X018157Y025953D01*
X018201Y025978D01*
X018247Y026000D01*
X018294Y026018D01*
X018342Y026032D01*
X018391Y026043D01*
X018441Y026050D01*
X018491Y026053D01*
X018542Y026052D01*
X018592Y026047D01*
X018642Y026038D01*
X018690Y026026D01*
X018738Y026009D01*
X018784Y025989D01*
X018829Y025966D01*
X018872Y025939D01*
X018912Y025909D01*
X018950Y025876D01*
X018985Y025840D01*
X019018Y025801D01*
X019047Y025760D01*
X019073Y025717D01*
X019096Y025672D01*
X019115Y025625D01*
X019130Y025577D01*
X019142Y025528D01*
X019150Y025478D01*
X019154Y025428D01*
X019154Y025378D01*
X019150Y025328D01*
X019142Y025278D01*
X019130Y025229D01*
X019115Y025181D01*
X019096Y025134D01*
X019073Y025089D01*
X019047Y025046D01*
X019018Y025005D01*
X018985Y024966D01*
X018950Y024930D01*
X018912Y024897D01*
X018872Y024867D01*
X018829Y024840D01*
X018784Y024817D01*
X018738Y024797D01*
X018690Y024780D01*
X018642Y024768D01*
X018592Y024759D01*
X018542Y024754D01*
X018491Y024753D01*
X018441Y024756D01*
X018391Y024763D01*
X018342Y024774D01*
X018294Y024788D01*
X018247Y024806D01*
X018201Y024828D01*
X018157Y024853D01*
X018116Y024882D01*
X018077Y024913D01*
X018040Y024948D01*
X018006Y024985D01*
X017975Y025025D01*
X017947Y025067D01*
X017923Y025111D01*
X017902Y025157D01*
X017885Y025205D01*
X017872Y025253D01*
X017862Y025303D01*
X017856Y025353D01*
X017854Y025403D01*
D11*
X020504Y024403D03*
X020504Y023403D03*
X020504Y022403D03*
X020504Y021403D03*
X020504Y020403D03*
X020504Y019403D03*
X020504Y017403D03*
X020504Y016403D03*
X020504Y015403D03*
X020504Y014403D03*
X020504Y013403D03*
X020504Y012403D03*
X001504Y012903D03*
X001504Y013903D03*
X001504Y014903D03*
X001504Y015903D03*
X001504Y017403D03*
X001504Y018403D03*
X001504Y019403D03*
X001504Y020403D03*
X001504Y021403D03*
X001504Y022403D03*
X001504Y023403D03*
X001504Y024403D03*
X001504Y011903D03*
X001504Y010903D03*
X001504Y009903D03*
X001504Y008903D03*
D12*
X010004Y012351D03*
X010004Y013454D03*
X010004Y015851D03*
X010004Y016954D03*
D13*
X013504Y016903D03*
X014504Y016903D03*
X014504Y013403D03*
X013504Y013403D03*
X018504Y008903D03*
X019504Y008903D03*
X019504Y009903D03*
X014504Y020903D03*
X013504Y020903D03*
X013504Y024403D03*
X014504Y024403D03*
D14*
X010284Y024403D02*
X009724Y024403D01*
X009724Y023403D02*
X010284Y023403D01*
X010284Y022403D02*
X009724Y022403D01*
X009724Y021403D02*
X010284Y021403D01*
X010284Y020403D02*
X009724Y020403D01*
X009724Y019403D02*
X010284Y019403D01*
X010724Y010403D02*
X011284Y010403D01*
X014724Y010403D02*
X015284Y010403D01*
D15*
X006988Y005403D03*
X005020Y005403D03*
D16*
X011254Y007903D03*
X011754Y006903D03*
X012754Y006903D03*
X013254Y007903D03*
X014254Y007903D03*
X013754Y006903D03*
X012254Y007903D03*
D17*
X010754Y006903D03*
D18*
X007454Y009013D02*
X007454Y009793D01*
X004504Y009793D02*
X004504Y009013D01*
X004504Y016883D02*
X004504Y017663D01*
X007454Y018263D02*
X007454Y019043D01*
D19*
X019204Y005403D03*
D20*
X017804Y005403D03*
D21*
X007504Y021418D02*
X007504Y022418D01*
X007504Y023387D02*
X007504Y024387D01*
X004504Y024387D02*
X004504Y023387D01*
X004504Y022418D02*
X004504Y021418D01*
D22*
X003004Y020903D02*
X003004Y017403D01*
X006504Y013903D01*
X006504Y006903D01*
X010754Y006903D01*
X011004Y007903D02*
X011254Y007903D01*
X011004Y007903D02*
X011004Y009403D01*
X007504Y009403D01*
X007454Y009403D01*
X007504Y009403D02*
X007504Y016903D01*
X010004Y016903D01*
X010004Y016954D01*
X010004Y019403D01*
X010004Y020403D02*
X010504Y020403D01*
X011004Y019903D01*
X011004Y015903D01*
X013504Y013403D01*
X012004Y013903D02*
X012004Y007903D01*
X012254Y007903D01*
X012754Y006903D02*
X013004Y006903D01*
X013004Y003903D01*
X013504Y003403D01*
X017004Y003403D01*
X017004Y011903D01*
X020504Y015403D01*
X020504Y016403D01*
X020504Y014403D02*
X017504Y011403D01*
X017504Y005403D01*
X017804Y005403D01*
X019004Y005403D02*
X019204Y005403D01*
X019004Y005403D02*
X019004Y003403D01*
X017004Y003403D01*
X019004Y005403D02*
X019004Y008403D01*
X018504Y008903D01*
X012004Y013903D02*
X010004Y015903D01*
X010004Y015851D01*
X008555Y015851D01*
X008004Y016403D01*
X008004Y015403D02*
X010004Y013403D01*
X010004Y013454D01*
X010004Y012403D02*
X010004Y012351D01*
X010004Y009903D01*
X011004Y009403D02*
X011004Y010403D01*
X007004Y005403D02*
X006988Y005403D01*
X007004Y005403D02*
X002504Y009903D01*
X002504Y011903D01*
X001504Y012903D01*
X001504Y014903D02*
X002504Y015903D01*
X002504Y025403D01*
X013504Y025403D01*
X014504Y024403D01*
X013504Y024403D02*
X013504Y023403D01*
X010004Y023403D01*
X010004Y022403D02*
X013504Y022403D01*
X013504Y020903D01*
X012504Y021403D02*
X012504Y017903D01*
X013504Y016903D01*
X012504Y021403D02*
X010004Y021403D01*
X007504Y018903D02*
X007454Y018653D01*
X001504Y009903D02*
X002504Y008903D01*
X002504Y007903D01*
X005004Y005403D01*
X005020Y005403D01*
D23*
X010004Y009903D03*
X008004Y015403D03*
X008004Y016403D03*
X003004Y020903D03*
D24*
X004504Y021918D02*
X004504Y017273D01*
X007504Y018903D02*
X007504Y021918D01*
M02*
